<svg width="40" height="40" viewBox="0 0 40 40" fill="none" xmlns="http://www.w3.org/2000/svg">
<path d="M19.9961 32.9449C15.4961 32.9449 11.5181 30.6409 9.19609 27.1849C9.25009 23.5849 16.3961 21.6049 19.9961 21.6049C23.5961 21.6049 30.7421 23.5849 30.7961 27.1849C28.4741 30.6409 24.4961 32.9449 19.9961 32.9449ZM19.9961 7.38486C21.4283 7.38486 22.8018 7.95379 23.8145 8.96649C24.8272 9.97918 25.3961 11.3527 25.3961 12.7849C25.3961 14.217 24.8272 15.5905 23.8145 16.6032C22.8018 17.6159 21.4283 18.1849 19.9961 18.1849C18.5639 18.1849 17.1904 17.6159 16.1777 16.6032C15.165 15.5905 14.5961 14.217 14.5961 12.7849C14.5961 11.3527 15.165 9.97918 16.1777 8.96649C17.1904 7.95379 18.5639 7.38486 19.9961 7.38486ZM19.9961 1.98486C17.6323 1.98486 15.2917 2.45045 13.1078 3.35503C10.9239 4.25962 8.93963 5.58549 7.26817 7.25694C3.89252 10.6326 1.99609 15.211 1.99609 19.9849C1.99609 24.7588 3.89252 29.3371 7.26817 32.7128C8.93963 34.3842 10.9239 35.7101 13.1078 36.6147C15.2917 37.5193 17.6323 37.9849 19.9961 37.9849C24.77 37.9849 29.3484 36.0884 32.724 32.7128C36.0997 29.3371 37.9961 24.7588 37.9961 19.9849C37.9961 10.0309 29.8961 1.98486 19.9961 1.98486Z" fill="#202020"/>
</svg>
