<svg width="64" height="64" viewBox="0 0 64 64" fill="none" xmlns="http://www.w3.org/2000/svg">
<g filter="url(#filter0_d_2158_88470)">
<path d="M5.60156 15.6001C5.60156 8.97268 10.9741 3.6001 17.6016 3.6001H45.6016C52.229 3.6001 57.6016 8.97268 57.6016 15.6001V43.6001C57.6016 50.2275 52.229 55.6001 45.6016 55.6001H17.6016C10.9741 55.6001 5.60156 50.2275 5.60156 43.6001V15.6001Z" fill="white" shape-rendering="crispEdges"/>
<path d="M17.6016 4.1001H45.6016C51.9528 4.1001 57.1016 9.24882 57.1016 15.6001V43.6001C57.1016 49.9514 51.9528 55.1001 45.6016 55.1001H17.6016C11.2503 55.1001 6.10156 49.9514 6.10156 43.6001V15.6001C6.10156 9.24882 11.2503 4.1001 17.6016 4.1001Z" stroke="#EEEEEE" shape-rendering="crispEdges"/>
<path d="M31.6202 20.5103C28.3102 20.5103 25.6202 23.2003 25.6202 26.5103V29.4003C25.6202 30.0103 25.3602 30.9403 25.0502 31.4603L23.9002 33.3703C23.1902 34.5503 23.6802 35.8603 24.9802 36.3003C29.2902 37.7403 33.9402 37.7403 38.2502 36.3003C39.4602 35.9003 39.9902 34.4703 39.3302 33.3703L38.1802 31.4603C37.8802 30.9403 37.6202 30.0103 37.6202 29.4003V26.5103C37.6202 23.2103 34.9202 20.5103 31.6202 20.5103Z" stroke="#292D32" stroke-miterlimit="10" stroke-linecap="round"/>
<path d="M33.4734 20.8C33.1634 20.71 32.8434 20.64 32.5134 20.6C31.5534 20.48 30.6334 20.55 29.7734 20.8C30.0634 20.06 30.7834 19.54 31.6234 19.54C32.4634 19.54 33.1834 20.06 33.4734 20.8Z" stroke="#292D32" stroke-miterlimit="10" stroke-linecap="round" stroke-linejoin="round"/>
<path d="M34.6211 36.6602C34.6211 38.3102 33.2711 39.6602 31.6211 39.6602C30.8011 39.6602 30.0411 39.3202 29.5011 38.7802C28.9611 38.2402 28.6211 37.4802 28.6211 36.6602" stroke="#292D32" stroke-miterlimit="10"/>
</g>
<defs>
<filter id="filter0_d_2158_88470" x="0.0015626" y="9.77516e-05" width="63.2" height="63.2" filterUnits="userSpaceOnUse" color-interpolation-filters="sRGB">
<feFlood flood-opacity="0" result="BackgroundImageFix"/>
<feColorMatrix in="SourceAlpha" type="matrix" values="0 0 0 0 0 0 0 0 0 0 0 0 0 0 0 0 0 0 127 0" result="hardAlpha"/>
<feOffset dy="2"/>
<feGaussianBlur stdDeviation="2.8"/>
<feComposite in2="hardAlpha" operator="out"/>
<feColorMatrix type="matrix" values="0 0 0 0 0.861478 0 0 0 0 0.861478 0 0 0 0 0.861478 0 0 0 0.25 0"/>
<feBlend mode="normal" in2="BackgroundImageFix" result="effect1_dropShadow_2158_88470"/>
<feBlend mode="normal" in="SourceGraphic" in2="effect1_dropShadow_2158_88470" result="shape"/>
</filter>
</defs>
</svg>
