<svg width="24" height="26" viewBox="0 0 24 26" fill="none" xmlns="http://www.w3.org/2000/svg">
<path d="M9 20V20.75C9 21.5456 9.31607 22.3087 9.87868 22.8713C10.4413 23.4339 11.2044 23.75 12 23.75C12.7956 23.75 13.5587 23.4339 14.1213 22.8713C14.6839 22.3087 15 21.5456 15 20.75V20" fill="white"/>
<path d="M9 20V20.75C9 21.5456 9.31607 22.3087 9.87868 22.8713C10.4413 23.4339 11.2044 23.75 12 23.75C12.7956 23.75 13.5587 23.4339 14.1213 22.8713C14.6839 22.3087 15 21.5456 15 20.75V20" stroke="#202020" stroke-width="1.5" stroke-linecap="round" stroke-linejoin="round"/>
<path d="M5.26861 11.7501C5.26736 10.861 5.44203 9.98035 5.78257 9.15901C6.12311 8.33766 6.62278 7.5918 7.25281 6.96438C7.88283 6.33697 8.63076 5.84041 9.45352 5.50329C10.2763 5.16617 11.1576 4.99516 12.0467 5.0001C15.7592 5.02823 18.7311 8.1126 18.7311 11.8345V12.5001C18.7311 15.8564 19.4342 17.8064 20.053 18.8751C20.1187 18.9889 20.1534 19.118 20.1535 19.2494C20.1536 19.3809 20.1192 19.51 20.0536 19.624C19.9881 19.7379 19.8938 19.8326 19.7802 19.8986C19.6665 19.9647 19.5375 19.9996 19.4061 20.0001H4.59361C4.46218 19.9996 4.33318 19.9647 4.21954 19.8986C4.10589 19.8326 4.01159 19.7379 3.94607 19.624C3.88056 19.51 3.84614 19.3809 3.84625 19.2494C3.84637 19.118 3.88102 18.9889 3.94674 18.8751C4.56549 17.8064 5.26861 15.8564 5.26861 12.5001V11.7501Z" fill="white" stroke="#202020" stroke-width="1.5" stroke-linecap="round" stroke-linejoin="round"/>
<circle cx="18" cy="6" r="4.75" fill="#A90836" stroke="white" stroke-width="1.5"/>
</svg>
