<svg width="18" height="24" viewBox="0 0 18 24" fill="none" xmlns="http://www.w3.org/2000/svg">
<path d="M17.8536 19.8536C18.0488 19.6583 18.0488 19.3417 17.8536 19.1464L14.6716 15.9645C14.4763 15.7692 14.1597 15.7692 13.9645 15.9645C13.7692 16.1597 13.7692 16.4763 13.9645 16.6716L16.7929 19.5L13.9645 22.3284C13.7692 22.5237 13.7692 22.8403 13.9645 23.0355C14.1597 23.2308 14.4763 23.2308 14.6716 23.0355L17.8536 19.8536ZM0.5 0L0 0L0 13.5H0.5H1L1 0L0.5 0ZM6.5 19.5V20H17.5V19.5V19H6.5V19.5ZM0.5 13.5H0C0 17.0899 2.91015 20 6.5 20V19.5V19C3.46243 19 1 16.5376 1 13.5H0.5Z" fill="#D3D3D3"/>
</svg>
