<svg width="24" height="24" viewBox="0 0 24 24" fill="none" xmlns="http://www.w3.org/2000/svg">
<rect width="24" height="24" rx="4" fill="#F4D9E0"/>
<path fill-rule="evenodd" clip-rule="evenodd" d="M16.9723 7.94586C17.2057 7.94586 17.4001 8.13967 17.4001 8.38627V8.61428C17.4001 8.85489 17.2057 9.05469 16.9723 9.05469H7.02794C6.79393 9.05469 6.59961 8.85489 6.59961 8.61428V8.38627C6.59961 8.13967 6.79393 7.94586 7.02794 7.94586H8.77744C9.13282 7.94586 9.44211 7.69325 9.52206 7.33684L9.61367 6.92763C9.75606 6.37021 10.2247 6 10.7609 6H13.2387C13.7692 6 14.243 6.37021 14.3802 6.89823L14.4782 7.33624C14.5576 7.69325 14.8668 7.94586 15.2228 7.94586H16.9723ZM16.0836 16.2802C16.2662 14.578 16.586 10.5338 16.586 10.493C16.5977 10.3694 16.5574 10.2524 16.4775 10.1582C16.3917 10.07 16.2831 10.0178 16.1635 10.0178H7.84083C7.72062 10.0178 7.60624 10.07 7.52688 10.1582C7.44635 10.2524 7.40667 10.3694 7.4125 10.493C7.41358 10.5005 7.42505 10.643 7.44423 10.8811C7.52946 11.9391 7.76682 14.8858 7.9202 16.2802C8.02874 17.3074 8.70274 17.9531 9.67903 17.9765C10.4324 17.9939 11.2085 17.9999 12.0022 17.9999C12.7497 17.9999 13.5089 17.9939 14.2856 17.9765C15.2958 17.9591 15.9692 17.3249 16.0836 16.2802Z" fill="#90223F"/>
</svg>
