<svg width="20" height="20" viewBox="0 0 20 20" fill="none" xmlns="http://www.w3.org/2000/svg">
<path d="M12.4844 5.84619C12.4844 5.84619 12.901 6.26286 13.3177 7.09619C13.3177 7.09619 14.6412 5.01286 15.8177 4.59619" stroke="#222222" stroke-linecap="round" stroke-linejoin="round"/>
<path d="M8.33034 1.6845C6.24829 1.59635 4.63974 1.8362 4.63974 1.8362C3.62403 1.90883 1.67752 2.47826 1.67754 5.80384C1.67755 9.10114 1.656 13.1661 1.67754 14.7866C1.67754 15.7767 2.29055 18.0861 4.41235 18.2099C6.99139 18.3604 11.6369 18.3924 13.7683 18.2099C14.3389 18.1777 16.2385 17.7298 16.4789 15.6631C16.728 13.522 16.6784 12.034 16.6784 11.6798" stroke="#222222" stroke-linecap="round" stroke-linejoin="round"/>
<path d="M18.3335 5.84635C18.3335 8.14754 16.4663 10.0131 14.1629 10.0131C11.8594 10.0131 9.99219 8.14754 9.99219 5.84635C9.99219 3.54517 11.8594 1.67969 14.1629 1.67969C16.4663 1.67969 18.3335 3.54517 18.3335 5.84635Z" stroke="#222222" stroke-linecap="round"/>
<path d="M5.81641 10.8462H9.14971" stroke="#222222" stroke-linecap="round"/>
<path d="M5.81641 14.1797H12.483" stroke="#222222" stroke-linecap="round"/>
</svg>
