<svg width="24" height="24" viewBox="0 0 24 24" fill="none" xmlns="http://www.w3.org/2000/svg">
<rect width="24" height="24" rx="4" fill="#D2F1E3"/>
<path fill-rule="evenodd" clip-rule="evenodd" d="M10.3626 17.4359L17.5254 10.2519C18.1746 9.59202 18.1746 8.52772 17.5254 7.87849L16.1418 6.4949C15.4819 5.83503 14.4176 5.83503 13.7577 6.4949L13.0447 7.21863C12.9382 7.32506 12.9382 7.50599 13.0447 7.61242C13.0447 7.61242 14.7369 9.29401 14.7688 9.33659C14.8859 9.4643 14.9604 9.63459 14.9604 9.82616C14.9604 10.2093 14.6518 10.5286 14.258 10.5286C14.077 10.5286 13.9067 10.4541 13.7897 10.337L12.0123 8.57029C11.9271 8.48514 11.7781 8.48514 11.693 8.57029L6.61622 13.647C6.265 13.9982 6.06278 14.4665 6.05214 14.9667L5.98828 17.4891C5.98828 17.6275 6.03085 17.7552 6.12664 17.851C6.22243 17.9468 6.35015 18 6.48851 18H8.98964C9.5005 18 9.99009 17.7978 10.3626 17.4359Z" fill="#12B76A"/>
</svg>
