<svg width="80" height="72" viewBox="0 0 80 72" fill="none" xmlns="http://www.w3.org/2000/svg">
<path d="M9 40C6.61305 40 4.32387 40.9482 2.63604 42.636C0.948211 44.3239 0 46.6131 0 49V50C0 50 0 68 24 68C48 68 48 50 48 50V49C48 46.6131 47.0518 44.3239 45.364 42.636C43.6761 40.9482 41.3869 40 39 40H9Z" fill="url(#paint0_linear_2627_16977)"/>
<path d="M9 40C6.61305 40 4.32387 40.9482 2.63604 42.636C0.948211 44.3239 0 46.6131 0 49V50C0 50 0 68 24 68C48 68 48 50 48 50V49C48 46.6131 47.0518 44.3239 45.364 42.636C43.6761 40.9482 41.3869 40 39 40H9Z" fill="url(#paint1_linear_2627_16977)"/>
<path d="M9 40C6.61305 40 4.32387 40.9482 2.63604 42.636C0.948211 44.3239 0 46.6131 0 49V50C0 50 0 68 24 68C48 68 48 50 48 50V49C48 46.6131 47.0518 44.3239 45.364 42.636C43.6761 40.9482 41.3869 40 39 40H9Z" fill="url(#paint2_linear_2627_16977)"/>
<path d="M60 32C63.1826 32 66.2348 30.7357 68.4853 28.4853C70.7357 26.2348 72 23.1826 72 20C72 16.8174 70.7357 13.7652 68.4853 11.5147C66.2348 9.26428 63.1826 8 60 8C56.8174 8 53.7652 9.26428 51.5147 11.5147C49.2643 13.7652 48 16.8174 48 20C48 23.1826 49.2643 26.2348 51.5147 28.4853C53.7652 30.7357 56.8174 32 60 32Z" fill="url(#paint3_linear_2627_16977)"/>
<path d="M24 32C28.2435 32 32.3131 30.3143 35.3137 27.3137C38.3143 24.3131 40 20.2435 40 16C40 11.7565 38.3143 7.68687 35.3137 4.68629C32.3131 1.68571 28.2435 0 24 0C19.7565 0 15.6869 1.68571 12.6863 4.68629C9.68571 7.68687 8 11.7565 8 16C8 20.2435 9.68571 24.3131 12.6863 27.3137C15.6869 30.3143 19.7565 32 24 32Z" fill="url(#paint4_linear_2627_16977)"/>
<path d="M36 36C36 33.8783 36.8429 31.8434 38.3431 30.3431C39.8434 28.8429 41.8783 28 44 28H72C74.1217 28 76.1566 28.8429 77.6569 30.3431C79.1571 31.8434 80 33.8783 80 36V64C80 66.1217 79.1571 68.1566 77.6569 69.6569C76.1566 71.1571 74.1217 72 72 72H44C41.8783 72 39.8434 71.1571 38.3431 69.6569C36.8429 68.1566 36 66.1217 36 64V36Z" fill="url(#paint5_linear_2627_16977)"/>
<path d="M47 36C46.2044 36 45.4413 36.3161 44.8787 36.8787C44.3161 37.4413 44 38.2044 44 39C44 39.7956 44.3161 40.5587 44.8787 41.1213C45.4413 41.6839 46.2044 42 47 42H69C69.7956 42 70.5587 41.6839 71.1213 41.1213C71.6839 40.5587 72 39.7956 72 39C72 38.2044 71.6839 37.4413 71.1213 36.8787C70.5587 36.3161 69.7956 36 69 36H47ZM47 47C46.2044 47 45.4413 47.3161 44.8787 47.8787C44.3161 48.4413 44 49.2044 44 50C44 50.7956 44.3161 51.5587 44.8787 52.1213C45.4413 52.6839 46.2044 53 47 53H69C69.7956 53 70.5587 52.6839 71.1213 52.1213C71.6839 51.5587 72 50.7956 72 50C72 49.2044 71.6839 48.4413 71.1213 47.8787C70.5587 47.3161 69.7956 47 69 47H47ZM47 58C46.2044 58 45.4413 58.3161 44.8787 58.8787C44.3161 59.4413 44 60.2043 44 61C44 61.7956 44.3161 62.5587 44.8787 63.1213C45.4413 63.6839 46.2044 64 47 64H69C69.7956 64 70.5587 63.6839 71.1213 63.1213C71.6839 62.5587 72 61.7956 72 61C72 60.2043 71.6839 59.4413 71.1213 58.8787C70.5587 58.3161 69.7956 58 69 58H47Z" fill="url(#paint6_linear_2627_16977)"/>
<defs>
<linearGradient id="paint0_linear_2627_16977" x1="11.416" y1="43.724" x2="21.64" y2="71.708" gradientUnits="userSpaceOnUse">
<stop offset="0.125" stop-color="#96ABFF"/>
<stop offset="1" stop-color="#6C89FE"/>
</linearGradient>
<linearGradient id="paint1_linear_2627_16977" x1="24" y1="36.668" x2="38.428" y2="82.884" gradientUnits="userSpaceOnUse">
<stop stop-color="#5E77DB" stop-opacity="0"/>
<stop offset="1" stop-color="#6280F8"/>
</linearGradient>
<linearGradient id="paint2_linear_2627_16977" x1="33.6" y1="40" x2="34.3905" y2="61.7898" gradientUnits="userSpaceOnUse">
<stop stop-color="#1843F0"/>
<stop offset="1" stop-color="#4A93F9"/>
</linearGradient>
<linearGradient id="paint3_linear_2627_16977" x1="64.8" y1="8" x2="65.9586" y2="26.6295" gradientUnits="userSpaceOnUse">
<stop stop-color="#1843F0"/>
<stop offset="1" stop-color="#4A93F9"/>
</linearGradient>
<linearGradient id="paint4_linear_2627_16977" x1="30.4" y1="-1.07586e-08" x2="31.9448" y2="24.8394" gradientUnits="userSpaceOnUse">
<stop stop-color="#1843F0"/>
<stop offset="1" stop-color="#4A93F9"/>
</linearGradient>
<linearGradient id="paint5_linear_2627_16977" x1="66.8" y1="28" x2="68.9242" y2="62.1541" gradientUnits="userSpaceOnUse">
<stop stop-color="#6C89FF"/>
<stop offset="1" stop-color="#4894FE"/>
</linearGradient>
<linearGradient id="paint6_linear_2627_16977" x1="57.9533" y1="47.6667" x2="50.9533" y2="59.3333" gradientUnits="userSpaceOnUse">
<stop stop-color="#9FB1F9"/>
<stop offset="1" stop-color="#B3C2FF"/>
</linearGradient>
</defs>
</svg>
