<svg width="100" height="121" viewBox="0 0 100 121" fill="none" xmlns="http://www.w3.org/2000/svg">
<path d="M42.1275 56.957H31.0859C28.4609 56.957 26.3359 59.0818 26.3359 61.7068V83.0401H42.1275V56.957V56.957Z" stroke="#C4C4C4" stroke-width="2.81" stroke-miterlimit="10" stroke-linecap="round" stroke-linejoin="round"/>
<path d="M53.1771 37.999H46.8437C44.2187 37.999 42.0938 40.1241 42.0938 42.7491V82.9992H57.8855V42.7491C57.8855 40.1241 55.8021 37.999 53.1771 37.999Z" stroke="#C4C4C4" stroke-width="2.81" stroke-miterlimit="10" stroke-linecap="round" stroke-linejoin="round"/>
<path d="M68.9557 64.041H57.9141V82.9996H73.7058V68.7911C73.6641 66.1661 71.539 64.041 68.9557 64.041Z" stroke="#C4C4C4" stroke-width="2.81" stroke-miterlimit="10" stroke-linecap="round" stroke-linejoin="round"/>
<path d="M37.5026 102.166H62.5026C83.3359 102.166 91.6693 93.833 91.6693 72.9997V47.9997C91.6693 27.1663 83.3359 18.833 62.5026 18.833H37.5026C16.6693 18.833 8.33594 27.1663 8.33594 47.9997V72.9997C8.33594 93.833 16.6693 102.166 37.5026 102.166Z" stroke="#C4C4C4" stroke-width="2.81" stroke-linecap="round" stroke-linejoin="round"/>
</svg>
