<svg width="61" height="49" viewBox="0 0 500 500" fill="none" xmlns="http://www.w3.org/2000/svg">
<path fill-rule="evenodd" clip-rule="evenodd" d="M251.276 48.7077C360.542 50.0915 448.691 139.097 448.691 248.691C448.691 359.148 359.149 448.69 248.692 448.69C138.236 448.69 48.6919 359.148 48.6914 248.691C48.6914 138.234 138.235 48.6904 248.692 48.6904L251.276 48.7077ZM317.157 351.162C295.744 355.312 272.667 357.552 248.692 357.552C224.717 357.552 201.639 355.312 180.225 351.162C183.412 360.142 186.996 368.488 190.915 376.096C207.713 408.704 228.776 424.631 248.692 424.631C268.608 424.63 289.67 408.703 306.467 376.096C310.387 368.488 313.971 360.142 317.157 351.162ZM84.2522 311.389C102.081 358.122 139.259 395.298 185.99 413.128C179.893 405.327 174.386 396.55 169.526 387.115C162.981 374.409 157.362 360.098 152.827 344.553C137.283 340.018 122.972 334.401 110.267 327.856C100.831 322.995 92.0533 317.488 84.2522 311.389ZM413.129 311.389C405.328 317.487 396.551 322.995 387.116 327.856C374.41 334.401 360.098 340.018 344.554 344.553C340.019 360.098 334.402 374.409 327.857 387.115C322.996 396.55 317.488 405.327 311.39 413.128C358.123 395.299 395.299 358.122 413.129 311.389ZM351.163 180.224C355.313 201.638 357.553 224.716 357.553 248.691C357.553 272.666 355.313 295.743 351.163 317.156C360.143 313.97 368.489 310.386 376.097 306.466C408.704 289.669 424.631 268.607 424.632 248.691C424.631 228.775 408.705 207.712 376.097 190.914C368.489 186.995 360.143 183.411 351.163 180.224ZM146.222 180.224C137.241 183.411 128.894 186.995 121.286 190.914C88.6783 207.712 72.7513 228.775 72.751 248.691C72.7515 268.607 88.6786 289.669 121.286 306.466C127.943 309.896 135.165 313.069 142.883 315.943L146.222 317.156C142.072 295.743 139.83 272.666 139.83 248.691C139.83 224.716 142.072 201.638 146.222 180.224ZM248.621 219.276C230.576 219.276 218.664 228.581 218.664 242.255C218.664 253.322 225.854 260.3 240.163 263.472L252.568 266.221C260.322 267.983 262.931 270.593 262.931 275.104C262.93 280.602 257.784 284.056 249.256 284.056C240.374 284.056 235.511 280.249 234.171 273.835L234.029 273.201H216.761L216.83 273.835C218.381 287.721 229.589 297.026 249.184 297.026C267.511 297.026 280.552 287.51 280.553 273.412C280.553 262.557 274.56 256.494 259.123 253.04L246.647 250.291C238.893 248.529 236.003 245.638 236.003 241.339C236.004 235.841 240.868 232.246 248.621 232.246C256.797 232.246 261.59 236.616 262.366 242.607L262.437 243.172H278.79L278.719 242.396C278.084 229.497 267.23 219.276 248.621 219.276ZM185.99 84.2512C139.259 102.08 102.081 139.258 84.2522 185.989C92.0531 179.891 100.831 174.386 110.267 169.525C122.972 162.98 137.283 157.36 152.827 152.826C157.361 137.282 162.981 122.971 169.526 110.266C174.387 100.83 179.892 92.0521 185.99 84.2512ZM311.39 84.2512C317.489 92.0523 322.996 100.83 327.857 110.266C334.402 122.971 340.019 137.282 344.554 152.826C360.099 157.361 374.41 162.98 387.116 169.525C396.551 174.385 405.328 179.892 413.129 185.989C395.299 139.258 358.123 102.08 311.39 84.2512ZM248.692 72.7501C228.776 72.7501 207.713 88.6771 190.915 121.285C187.486 127.942 184.312 135.164 181.438 142.882L180.225 146.221L184.26 145.465C204.528 141.8 226.216 139.829 248.692 139.829C272.667 139.829 295.744 142.071 317.157 146.221L315.944 142.882C313.07 135.164 309.897 127.942 306.467 121.285C289.67 88.6779 268.608 72.7508 248.692 72.7501Z" fill="#0C39ED"/>
</svg>
