<svg width="20" height="20" viewBox="0 0 20 20" fill="none" xmlns="http://www.w3.org/2000/svg">
<path d="M10 17.5C14.1421 17.5 17.5 14.1421 17.5 10C17.5 5.85786 14.1421 2.5 10 2.5C5.85786 2.5 2.5 5.85786 2.5 10C2.5 14.1421 5.85786 17.5 10 17.5Z" fill="white"/>
<path d="M10 17.5C14.1421 17.5 17.5 14.1421 17.5 10C17.5 5.85786 14.1421 2.5 10 2.5C5.85786 2.5 2.5 5.85786 2.5 10C2.5 14.1421 5.85786 17.5 10 17.5Z" stroke="white" stroke-width="2" stroke-miterlimit="10"/>
<path d="M10 6.25V10.625" stroke="#27A713" stroke-width="2" stroke-linecap="round" stroke-linejoin="round"/>
<path d="M10 12.5625C10.4832 12.5625 10.875 12.9543 10.875 13.4375C10.875 13.9207 10.4832 14.3125 10 14.3125C9.51675 14.3125 9.125 13.9207 9.125 13.4375C9.125 12.9543 9.51675 12.5625 10 12.5625Z" fill="#27A713" stroke="#27A713" stroke-width="0.125"/>
</svg>
