<svg width="16" height="16" viewBox="0 0 16 16" fill="none" xmlns="http://www.w3.org/2000/svg">
<g clip-path="url(#clip0_40934_1513)">
<path d="M3.52602 11.3594C3.12593 11.3594 2.78594 11.4994 2.50592 11.7794C2.226 12.0596 2.08594 12.3995 2.08594 12.7996C2.08594 13.1997 2.2259 13.5396 2.50592 13.8199C2.78605 14.0999 3.12604 14.2399 3.52602 14.2399C3.91939 14.2399 4.25766 14.0999 4.54104 13.8199C4.82432 13.54 4.96596 13.1997 4.96596 12.7996C4.96596 12.3995 4.82436 12.0598 4.54104 11.7794C4.25762 11.4996 3.91939 11.3594 3.52602 11.3594Z" fill="#A90836"/>
<path d="M3.19998 8.31984C3.19998 7.87986 3.04338 7.5033 2.73002 7.18969C2.41668 6.87636 2.03995 6.71973 1.59997 6.71973C1.15995 6.71973 0.783297 6.87639 0.469929 7.18969C0.156631 7.50306 0 7.87972 0 8.31984C0 8.75975 0.156596 9.13623 0.469929 9.44967C0.783297 9.76311 1.15995 9.91978 1.59997 9.91978C2.03995 9.91978 2.41668 9.76311 2.73002 9.44967C3.04338 9.13644 3.19998 8.75975 3.19998 8.31984Z" fill="#A90836"/>
<path d="M12.4876 4.64019C12.7074 4.64019 12.896 4.56173 13.0525 4.40513C13.2092 4.2484 13.2876 4.06 13.2876 3.84004C13.2876 3.61998 13.2092 3.43172 13.0525 3.27509C12.8959 3.11835 12.7074 3.04004 12.4876 3.04004C12.2675 3.04004 12.0791 3.11849 11.9224 3.27509C11.7659 3.43176 11.6875 3.61998 11.6875 3.84004C11.6875 4.0601 11.7659 4.2484 11.9224 4.40513C12.0791 4.56187 12.2675 4.64019 12.4876 4.64019Z" fill="#A90836"/>
<path d="M3.52566 2.08008C3.03892 2.08008 2.62394 2.25177 2.2806 2.59505C1.93721 2.93833 1.76562 3.35334 1.76562 3.83997C1.76562 4.32678 1.93721 4.74162 2.2806 5.08504C2.62405 5.42842 3.03902 5.60008 3.52566 5.60008C4.0123 5.60008 4.42731 5.42832 4.77059 5.08504C5.11386 4.74162 5.28556 4.32668 5.28556 3.83997C5.28556 3.35334 5.11386 2.93833 4.77059 2.59505C4.42731 2.25177 4.0123 2.08008 3.52566 2.08008Z" fill="#A90836"/>
<path d="M15.0772 7.63929C14.8905 7.45261 14.6639 7.35938 14.3973 7.35938C14.1305 7.35938 13.9039 7.45261 13.7172 7.63929C13.5307 7.82598 13.4375 8.05269 13.4375 8.31951C13.4375 8.58605 13.5307 8.81308 13.7172 8.99935C13.904 9.1861 14.1305 9.27933 14.3973 9.27933C14.6639 9.27933 14.8907 9.1861 15.0772 8.99935C15.2639 8.81287 15.357 8.58605 15.357 8.31951C15.357 8.05283 15.264 7.82608 15.0772 7.63929Z" fill="#A90836"/>
<path d="M12.4717 11.6797C12.1648 11.6797 11.9015 11.7896 11.6814 12.0097C11.4616 12.2295 11.3516 12.4929 11.3516 12.7998C11.3516 13.1064 11.4616 13.3698 11.6814 13.5899C11.9015 13.81 12.1648 13.9198 12.4717 13.9198C12.7783 13.9198 13.0416 13.8098 13.2616 13.5899C13.4817 13.3699 13.5916 13.1065 13.5916 12.7998C13.5916 12.4929 13.4817 12.2298 13.2616 12.0097C13.0416 11.7896 12.7783 11.6797 12.4717 11.6797Z" fill="#A90836"/>
<path d="M7.99887 13.4395C7.64554 13.4395 7.34384 13.5647 7.09369 13.8147C6.84379 14.0648 6.71875 14.3663 6.71875 14.7197C6.71875 15.0731 6.84365 15.3746 7.09369 15.6246C7.34384 15.8747 7.6454 15.9998 7.99887 15.9998C8.35224 15.9998 8.65381 15.8747 8.90385 15.6246C9.15389 15.3746 9.27889 15.0731 9.27889 14.7197C9.27889 14.3663 9.15389 14.0648 8.90385 13.8147C8.65381 13.5647 8.35224 13.4395 7.99887 13.4395Z" fill="#A90836"/>
<path d="M7.99819 0C7.46494 0 7.0114 0.186578 6.63803 0.559908C6.26477 0.933273 6.07812 1.38671 6.07812 1.91999C6.07812 2.45332 6.2647 2.90654 6.63803 3.27994C7.0114 3.6532 7.46483 3.83988 7.99819 3.83988C8.53169 3.83988 8.98491 3.65331 9.35814 3.27994C9.73136 2.90672 9.91801 2.45332 9.91801 1.91999C9.91801 1.38674 9.73136 0.933413 9.35814 0.559908C8.98491 0.186683 8.53169 0 7.99819 0Z" fill="#A90836"/>
</g>
<defs>
<clipPath id="clip0_40934_1513">
<rect width="16" height="16" fill="white"/>
</clipPath>
</defs>
</svg>
