<svg width="16" height="16" viewBox="0 0 16 16" fill="none" xmlns="http://www.w3.org/2000/svg">
<path d="M6.00065 14.6666H10.0007C13.334 14.6666 14.6673 13.3333 14.6673 9.99998V5.99998C14.6673 2.66665 13.334 1.33331 10.0007 1.33331H6.00065C2.66732 1.33331 1.33398 2.66665 1.33398 5.99998V9.99998C1.33398 13.3333 2.66732 14.6666 6.00065 14.6666Z" stroke="#9F9F9F" stroke-linecap="round" stroke-linejoin="round"/>
<path d="M10.3333 12.3334C11.0667 12.3334 11.6667 11.7334 11.6667 11V5.00002C11.6667 4.26669 11.0667 3.66669 10.3333 3.66669C9.6 3.66669 9 4.26669 9 5.00002V11C9 11.7334 9.59333 12.3334 10.3333 12.3334Z" stroke="#9F9F9F" stroke-linecap="round" stroke-linejoin="round"/>
<path d="M5.66732 12.3333C6.40065 12.3333 7.00065 11.7333 7.00065 11V8.66665C7.00065 7.93331 6.40065 7.33331 5.66732 7.33331C4.93398 7.33331 4.33398 7.93331 4.33398 8.66665V11C4.33398 11.7333 4.92732 12.3333 5.66732 12.3333Z" stroke="#9F9F9F" stroke-linecap="round" stroke-linejoin="round"/>
</svg>
