<svg width="61" height="49" viewBox="0 0 61 49" fill="none" xmlns="http://www.w3.org/2000/svg">
<path d="M39.1122 29.4057C39.1122 29.8097 39.4398 30.1373 39.8438 30.1373H47.8906C49.2861 30.1373 50.4648 30.6047 51.4267 31.5395C52.4021 32.4879 52.8899 33.8224 52.8899 35.543C52.8899 36.8301 52.3818 37.9817 51.3657 38.9978C50.3496 40.0274 49.1913 40.5423 47.8906 40.5423H34.6695V35.0841C34.6695 34.68 34.3419 34.3525 33.9379 34.3525C33.5338 34.3525 33.2063 34.68 33.2063 35.0841V42.0055H47.8906C49.5977 42.0055 51.1015 41.3484 52.4021 40.0342C53.7028 38.72 54.3531 37.223 54.3531 35.543C54.3531 33.4701 53.7231 31.8037 52.4631 30.5437C51.2031 29.2973 49.679 28.6741 47.8906 28.6741H39.8438C39.4398 28.6741 39.1122 29.0016 39.1122 29.4057ZM39.1122 26.4793C39.1122 26.8833 39.4398 27.2109 39.8438 27.2109H47.8906C49.2996 27.2109 50.6003 27.5496 51.7925 28.227C52.9983 28.918 53.9669 29.907 54.6985 31.194C55.4437 32.4811 55.8163 33.9308 55.8163 35.543C55.8163 37.6294 55.0169 39.472 53.4182 41.0706C51.8331 42.6693 49.9906 43.4687 47.8906 43.4687H31.7431V35.0841C31.7431 34.68 31.4155 34.3525 31.0115 34.3525C30.6074 34.3525 30.2799 34.68 30.2799 35.0841V44.9319H47.8906C49.53 44.9319 51.0744 44.4983 52.5241 43.6312C53.9737 42.7642 55.1253 41.6058 55.9788 40.1561C56.8459 38.7065 57.2794 37.1688 57.2794 35.543C57.2794 33.7005 56.8459 32.0205 55.9788 30.5031C55.1118 28.9992 53.9602 27.8273 52.5241 26.9873C51.1015 26.1609 49.5571 25.7477 47.8906 25.7477H39.8438C39.4398 25.7477 39.1122 26.0752 39.1122 26.4793ZM39.1122 23.5529C39.1122 23.9569 39.4398 24.2845 39.8438 24.2845H47.8906C49.3403 24.2845 50.729 24.569 52.0567 25.138C53.3844 25.7206 54.536 26.4996 55.5114 27.4751C56.5004 28.4641 57.2862 29.6563 57.8688 31.0518C58.4514 32.4608 58.7426 33.9579 58.7426 35.543C58.7426 37.4397 58.2481 39.2213 57.2591 40.8877C56.2701 42.5677 54.9356 43.9022 53.2557 44.8912C51.5893 45.8938 49.8009 46.3951 47.8906 46.3951H28.8167V35.0841C28.8167 34.68 28.4892 34.3525 28.0851 34.3525C27.6811 34.3525 27.3535 34.68 27.3535 35.0841L27.3535 47.8583H47.8906C50.0583 47.8583 52.0905 47.2892 53.9873 46.1512C55.884 45.0267 57.3946 43.5161 58.5191 41.6193C59.6436 39.7226 60.2058 37.6972 60.2058 35.543C60.2058 33.6192 59.8739 31.8444 59.21 30.2186C58.5462 28.6063 57.652 27.2651 56.5275 26.1948C55.403 25.1245 54.0957 24.2913 52.6054 23.6951C51.1151 23.1126 49.5435 22.8213 47.8906 22.8213H39.8438C39.4398 22.8213 39.1122 23.1488 39.1122 23.5529ZM37.5958 35.0841C37.5958 34.68 37.2683 34.3525 36.8643 34.3525C36.4602 34.3525 36.1327 34.68 36.1327 35.0841V39.0791H47.8906C48.8526 39.0791 49.679 38.7268 50.3699 38.0223C51.0744 37.3178 51.4267 36.4914 51.4267 35.543C51.4267 32.9147 50.248 31.6005 47.8906 31.6005H39.8438C39.4398 31.6005 39.1122 31.928 39.1122 32.3321C39.1122 32.7361 39.4398 33.0637 39.8438 33.0637H47.8906C48.541 33.0637 49.049 33.2466 49.4148 33.6124C49.7806 33.9782 49.9635 34.6217 49.9635 35.543C49.9635 36.1391 49.7603 36.6336 49.3538 37.0265C48.9609 37.4194 48.4732 37.6159 47.8906 37.6159H37.5958V35.0841Z" fill="#0D3AED" stroke="#0D3AED" stroke-width="0.411324"/>
<path d="M45.806 21.2993C45.4019 21.2993 45.0744 20.9718 45.0744 20.5677V12.5208C45.0744 11.1254 44.607 9.94669 43.6721 8.98477C42.7238 8.0093 41.3893 7.52157 39.6687 7.52157C38.3816 7.52157 37.23 8.02962 36.2139 9.04573C35.1843 10.0618 34.6695 11.2202 34.6695 12.5208V25.7421H36.344C36.7481 25.7421 37.0756 26.0697 37.0756 26.4737C37.0756 26.8778 36.7481 27.2053 36.344 27.2053H33.2063V12.5208C33.2063 10.8138 33.8634 9.30992 35.1775 8.0093C36.4917 6.70868 37.9887 6.05837 39.6687 6.05837C41.7415 6.05837 43.408 6.68836 44.6679 7.94833C45.9143 9.20831 46.5376 10.7325 46.5376 12.5208V20.5677C46.5376 20.9718 46.21 21.2993 45.806 21.2993ZM48.7323 21.2993C48.3283 21.2993 48.0007 20.9718 48.0007 20.5677V12.5208C48.0007 11.1118 47.6621 9.8112 46.9846 8.61897C46.2937 7.41318 45.3047 6.44449 44.0176 5.71289C42.7306 4.96774 41.2809 4.59517 39.6687 4.59517C37.5823 4.59517 35.7398 5.39451 34.1411 6.99319C32.5424 8.57832 31.7431 10.4209 31.7431 12.5208V28.6685H36.344C36.7481 28.6685 37.0756 28.9961 37.0756 29.4001C37.0756 29.8042 36.7481 30.1317 36.344 30.1317H30.2799V12.5208C30.2799 10.8815 30.7134 9.33702 31.5805 7.88737C32.4476 6.43772 33.6059 5.28612 35.0556 4.43259C36.5052 3.56551 38.0429 3.13197 39.6687 3.13197C41.5112 3.13197 43.1912 3.56551 44.7086 4.43259C46.2124 5.29967 47.3843 6.45126 48.2243 7.88737C49.0507 9.30992 49.4639 10.8544 49.4639 12.5208V20.5677C49.4639 20.9718 49.1364 21.2993 48.7323 21.2993ZM51.6587 21.2993C51.2547 21.2993 50.9271 20.9718 50.9271 20.5677V12.5208C50.9271 11.0712 50.6426 9.6825 50.0736 8.35478C49.491 7.02706 48.712 5.87547 47.7366 4.9C46.7476 3.91099 45.5553 3.12519 44.1599 2.54262C42.7509 1.96005 41.2538 1.66877 39.6687 1.66877C37.772 1.66877 35.9904 2.16327 34.324 3.15229C32.644 4.1413 31.3095 5.4758 30.3205 7.15577C29.318 8.82219 28.8167 10.6105 28.8167 12.5208V31.5949H36.344C36.7481 31.5949 37.0756 31.9225 37.0756 32.3265C37.0756 32.7306 36.7481 33.0581 36.344 33.0581H27.3535L27.3535 12.5208C27.3535 10.3531 27.9225 8.32091 29.0606 6.42417C30.1851 4.52743 31.6957 3.01681 33.5924 1.89231C35.4891 0.767815 37.5146 0.205566 39.6687 0.205566C41.5925 0.205566 43.3673 0.537496 44.9931 1.20136C46.6053 1.86521 47.9466 2.75939 49.0169 3.88389C50.0872 5.00839 50.9204 6.31578 51.5165 7.80608C52.099 9.29638 52.3903 10.868 52.3903 12.5208V20.5677C52.3903 20.9718 52.0628 21.2993 51.6587 21.2993ZM37.5958 23.4956C37.5958 23.9282 37.2451 24.2789 36.8125 24.2789C36.437 24.2789 36.1327 23.9745 36.1327 23.599V12.5208C36.1327 11.5589 36.4849 10.7325 37.1894 10.0415C37.8939 9.33702 38.7203 8.98477 39.6687 8.98477C42.297 8.98477 43.6112 10.1635 43.6112 12.5208V20.5677C43.6112 20.9718 43.2836 21.2993 42.8796 21.2993C42.4755 21.2993 42.148 20.9718 42.148 20.5677V12.5208C42.148 11.8705 41.9651 11.3625 41.5993 10.9967C41.2335 10.6309 40.59 10.448 39.6687 10.448C39.0726 10.448 38.5781 10.6512 38.1852 11.0576C37.7923 11.4505 37.5958 11.9383 37.5958 12.5208V23.4956Z" fill="#0D3AED" stroke="#0D3AED" stroke-width="0.411324"/>
<path d="M25.0098 16.6459C25.4139 16.6459 25.7414 16.9734 25.7414 17.3775C25.7414 17.7816 25.4139 18.1091 25.0098 18.1091H12.5203C11.9377 18.1091 11.45 18.3055 11.0571 18.6984C10.6506 19.0913 10.4474 19.5858 10.4474 20.182C10.4474 21.1032 10.6303 21.7468 10.9961 22.1126C11.3619 22.4784 11.87 22.6613 12.5203 22.6613H25.0128C25.4168 22.6613 25.7444 22.9888 25.7444 23.3929C25.7444 23.7969 25.4168 24.1245 25.0128 24.1245H12.5203C10.1629 24.1245 8.98422 22.8103 8.98422 20.182C8.98422 19.2336 9.33647 18.4072 10.041 17.7027C10.7319 16.9982 11.5583 16.6459 12.5203 16.6459H25.0098Z" fill="#0D3AED"/>
<path d="M25.0064 13.7195C25.4123 13.7195 25.7414 14.0486 25.7414 14.4546C25.7414 14.8607 25.412 15.1899 25.0059 15.1896L12.5203 15.1827C11.2196 15.1827 10.0613 15.6975 9.04518 16.7272C8.02908 17.7433 7.52103 18.8949 7.52103 20.182C7.52103 21.9026 8.00876 23.2371 8.98422 24.1854C9.94613 25.1203 11.1248 25.5877 12.5203 25.5877H25.0128C25.4168 25.5877 25.7444 25.9152 25.7444 26.3193C25.7444 26.7233 25.4168 27.0509 25.0128 27.0509H12.5203C10.7319 27.0509 9.20776 26.4277 7.94779 25.1812C6.68782 23.9213 6.05784 22.2548 6.05784 20.182C6.05784 18.502 6.70814 17.0049 8.00876 15.6908C9.30937 14.3766 10.8132 13.7195 12.5203 13.7195H25.0064Z" fill="#0D3AED"/>
<path d="M25.0294 10.7931C25.4334 10.7931 25.761 11.1206 25.761 11.5247C25.761 11.9288 25.4334 12.2563 25.0294 12.2563H12.5203C10.4203 12.2563 8.57778 13.0556 6.99265 14.6543C5.39398 16.253 4.59465 18.0956 4.59465 20.182C4.59465 21.7942 4.96722 23.2438 5.71236 24.5309C6.44396 25.818 7.41264 26.807 8.61842 27.498C9.81065 28.1754 11.1113 28.5141 12.5203 28.5141H25.0128C25.4168 28.5141 25.7444 28.8416 25.7444 29.2457C25.7444 29.6497 25.4168 29.9773 25.0128 29.9773H12.5203C10.8538 29.9773 9.30937 29.5641 7.88682 28.7376C6.45073 27.8976 5.29915 26.7257 4.43207 25.2219C3.565 23.7045 3.13146 22.0245 3.13146 20.182C3.13146 18.5562 3.565 17.0185 4.43207 15.5688C5.2856 14.1192 6.43718 12.9608 7.88682 12.0937C9.33647 11.2266 10.8809 10.7931 12.5203 10.7931H25.0294Z" fill="#0D3AED"/>
<path d="M25.0069 7.8667C25.411 7.8667 25.7385 8.19425 25.7385 8.5983C25.7385 9.00235 25.411 9.3299 25.0069 9.3299H12.5203C10.61 9.3299 8.82164 9.83118 7.15523 10.8337C5.47527 11.8228 4.14079 13.1573 3.15178 14.8372C2.16277 16.5036 1.66827 18.2852 1.66827 20.182C1.66827 21.7671 1.95955 23.2642 2.54212 24.6732C3.12468 26.0686 3.91047 27.2609 4.89948 28.2499C5.87494 29.2254 7.02652 30.0044 8.35423 30.5869C9.68194 31.156 11.0706 31.4405 12.5203 31.4405H25.0128C25.4168 31.4405 25.7444 31.768 25.7444 32.1721C25.7444 32.5761 25.4168 32.9037 25.0128 32.9037H12.5203C10.8674 32.9037 9.29582 32.6124 7.80554 32.0298C6.31525 31.4337 5.00786 30.6005 3.88337 29.5302C2.75889 28.4599 1.86471 27.1186 1.20086 25.5064C0.537005 23.8806 0.205078 22.1058 0.205078 20.182C0.205078 18.0278 0.767322 16.0024 1.89181 14.1056C3.0163 12.2089 4.52691 10.6983 6.42364 9.57377C8.32036 8.43572 10.3526 7.8667 12.5203 7.8667H25.0069Z" fill="#0D3AED"/>
<path d="M25.0098 16.6459C25.4139 16.6459 25.7414 16.9734 25.7414 17.3775C25.7414 17.7816 25.4139 18.1091 25.0098 18.1091H12.5203C11.9377 18.1091 11.45 18.3055 11.0571 18.6984C10.6506 19.0913 10.4474 19.5858 10.4474 20.182C10.4474 21.1032 10.6303 21.7468 10.9961 22.1126C11.3619 22.4784 11.87 22.6613 12.5203 22.6613H25.0128C25.4168 22.6613 25.7444 22.9888 25.7444 23.3929C25.7444 23.7969 25.4168 24.1245 25.0128 24.1245H12.5203C10.1629 24.1245 8.98422 22.8103 8.98422 20.182C8.98422 19.2336 9.33647 18.4072 10.041 17.7027C10.7319 16.9982 11.5583 16.6459 12.5203 16.6459H25.0098Z" stroke="#0D3AED" stroke-width="0.411324"/>
<path d="M25.0064 13.7195C25.4123 13.7195 25.7414 14.0486 25.7414 14.4546C25.7414 14.8607 25.412 15.1899 25.0059 15.1896L12.5203 15.1827C11.2196 15.1827 10.0613 15.6975 9.04518 16.7272C8.02908 17.7433 7.52103 18.8949 7.52103 20.182C7.52103 21.9026 8.00876 23.2371 8.98422 24.1854C9.94613 25.1203 11.1248 25.5877 12.5203 25.5877H25.0128C25.4168 25.5877 25.7444 25.9152 25.7444 26.3193C25.7444 26.7233 25.4168 27.0509 25.0128 27.0509H12.5203C10.7319 27.0509 9.20776 26.4277 7.94779 25.1812C6.68782 23.9213 6.05784 22.2548 6.05784 20.182C6.05784 18.502 6.70814 17.0049 8.00876 15.6908C9.30937 14.3766 10.8132 13.7195 12.5203 13.7195H25.0064Z" stroke="#0D3AED" stroke-width="0.411324"/>
<path d="M25.0294 10.7931C25.4334 10.7931 25.761 11.1206 25.761 11.5247C25.761 11.9288 25.4334 12.2563 25.0294 12.2563H12.5203C10.4203 12.2563 8.57778 13.0556 6.99265 14.6543C5.39398 16.253 4.59465 18.0956 4.59465 20.182C4.59465 21.7942 4.96722 23.2438 5.71236 24.5309C6.44396 25.818 7.41264 26.807 8.61842 27.498C9.81065 28.1754 11.1113 28.5141 12.5203 28.5141H25.0128C25.4168 28.5141 25.7444 28.8416 25.7444 29.2457C25.7444 29.6497 25.4168 29.9773 25.0128 29.9773H12.5203C10.8538 29.9773 9.30937 29.5641 7.88682 28.7376C6.45073 27.8976 5.29915 26.7257 4.43207 25.2219C3.565 23.7045 3.13146 22.0245 3.13146 20.182C3.13146 18.5562 3.565 17.0185 4.43207 15.5688C5.2856 14.1192 6.43718 12.9608 7.88682 12.0937C9.33647 11.2266 10.8809 10.7931 12.5203 10.7931H25.0294Z" stroke="#0D3AED" stroke-width="0.411324"/>
<path d="M25.0069 7.8667C25.411 7.8667 25.7385 8.19425 25.7385 8.5983C25.7385 9.00235 25.411 9.3299 25.0069 9.3299H12.5203C10.61 9.3299 8.82164 9.83118 7.15523 10.8337C5.47527 11.8228 4.14079 13.1573 3.15178 14.8372C2.16277 16.5036 1.66827 18.2852 1.66827 20.182C1.66827 21.7671 1.95955 23.2642 2.54212 24.6732C3.12468 26.0686 3.91047 27.2609 4.89948 28.2499C5.87494 29.2254 7.02652 30.0044 8.35423 30.5869C9.68194 31.156 11.0706 31.4405 12.5203 31.4405H25.0128C25.4168 31.4405 25.7444 31.768 25.7444 32.1721C25.7444 32.5761 25.4168 32.9037 25.0128 32.9037H12.5203C10.8674 32.9037 9.29582 32.6124 7.80554 32.0298C6.31525 31.4337 5.00786 30.6005 3.88337 29.5302C2.75889 28.4599 1.86471 27.1186 1.20086 25.5064C0.537005 23.8806 0.205078 22.1058 0.205078 20.182C0.205078 18.0278 0.767322 16.0024 1.89181 14.1056C3.0163 12.2089 4.52691 10.6983 6.42364 9.57377C8.32036 8.43572 10.3526 7.8667 12.5203 7.8667H25.0069Z" stroke="#0D3AED" stroke-width="0.411324"/>
</svg>
