<svg width="24" height="24" viewBox="0 0 24 24" fill="none" xmlns="http://www.w3.org/2000/svg">
<rect width="24" height="24" rx="4" fill="#E3D4EF"/>
<path opacity="0.4" d="M18.9375 9.86227C17.205 7.13977 14.67 5.57227 12 5.57227C10.665 5.57227 9.3675 5.96227 8.1825 6.68977C6.9975 7.42477 5.9325 8.49727 5.0625 9.86227C4.3125 11.0398 4.3125 12.9523 5.0625 14.1298C6.795 16.8598 9.33 18.4198 12 18.4198C13.335 18.4198 14.6325 18.0298 15.8175 17.3023C17.0025 16.5673 18.0675 15.4948 18.9375 14.1298C19.6875 12.9598 19.6875 11.0398 18.9375 9.86227ZM12 15.0298C10.32 15.0298 8.97 13.6723 8.97 11.9998C8.97 10.3273 10.32 8.96977 12 8.96977C13.68 8.96977 15.03 10.3273 15.03 11.9998C15.03 13.6723 13.68 15.0298 12 15.0298Z" fill="#602290"/>
<path d="M11.9998 9.85498C10.8223 9.85498 9.8623 10.815 9.8623 12C9.8623 13.1775 10.8223 14.1375 11.9998 14.1375C13.1773 14.1375 14.1448 13.1775 14.1448 12C14.1448 10.8225 13.1773 9.85498 11.9998 9.85498Z" fill="#602290"/>
</svg>
