<svg width="1693" height="500" viewBox="0 0 1693 500" fill="none" xmlns="http://www.w3.org/2000/svg">
<path fill-rule="evenodd" clip-rule="evenodd" d="M251.418 140.361C311.322 141.119 359.65 189.916 359.65 250.001C359.65 310.558 310.558 359.649 250.001 359.649C189.444 359.649 140.352 310.558 140.352 250.001C140.352 189.443 189.444 140.351 250.001 140.351L251.418 140.361ZM287.537 306.18C275.797 308.455 263.145 309.683 250.001 309.683C236.857 309.683 224.205 308.455 212.465 306.18C214.211 311.103 216.177 315.679 218.325 319.85C227.535 337.727 239.082 346.459 250.001 346.459C260.92 346.458 272.467 337.726 281.676 319.85C283.825 315.679 285.79 311.103 287.537 306.18ZM159.848 284.375C169.622 309.995 190.005 330.377 215.625 340.152C212.282 335.876 209.263 331.064 206.599 325.891C203.01 318.925 199.929 311.079 197.443 302.557C188.922 300.07 181.076 296.991 174.11 293.402C168.937 290.737 164.125 287.718 159.848 284.375ZM340.153 284.375C335.876 287.718 331.064 290.738 325.891 293.402C318.926 296.991 311.079 300.07 302.557 302.557C300.071 311.079 296.991 318.925 293.403 325.891C290.738 331.064 287.718 335.875 284.375 340.152C309.996 330.377 330.378 309.996 340.153 284.375ZM306.18 212.464C308.455 224.204 309.683 236.856 309.683 250.001C309.683 263.145 308.455 275.796 306.18 287.536C311.104 285.79 315.679 283.824 319.85 281.676C337.727 272.466 346.459 260.919 346.459 250.001C346.459 239.082 337.727 227.534 319.85 218.325C315.679 216.176 311.104 214.211 306.18 212.464ZM193.822 212.464C188.899 214.211 184.322 216.176 180.151 218.325C162.274 227.534 153.542 239.082 153.542 250.001C153.542 260.919 162.274 272.466 180.151 281.676C183.801 283.556 187.76 285.296 191.992 286.871L193.822 287.536C191.547 275.796 190.318 263.145 190.318 250.001C190.318 236.856 191.547 224.204 193.822 212.464ZM249.962 233.874C240.069 233.874 233.538 238.975 233.538 246.472C233.538 252.54 237.48 256.365 245.325 258.104L252.126 259.611C256.377 260.577 257.807 262.008 257.807 264.481C257.807 267.495 254.986 269.389 250.31 269.389C245.441 269.389 242.774 267.302 242.04 263.786L241.962 263.438H232.495L232.533 263.786C233.383 271.399 239.528 276.5 250.271 276.5C260.319 276.5 267.468 271.283 267.469 263.554C267.469 257.603 264.183 254.278 255.72 252.385L248.88 250.878C244.629 249.911 243.044 248.327 243.044 245.97C243.045 242.955 245.711 240.985 249.962 240.985C254.445 240.985 257.072 243.381 257.498 246.665L257.537 246.975H266.502L266.463 246.549C266.115 239.477 260.164 233.874 249.962 233.874ZM215.625 159.847C190.005 169.622 169.622 190.004 159.848 215.625C164.124 212.281 168.937 209.263 174.11 206.598C181.076 203.01 188.921 199.929 197.443 197.443C199.929 188.921 203.01 181.075 206.599 174.11C209.263 168.937 212.282 164.124 215.625 159.847ZM284.375 159.847C287.719 164.124 290.738 168.936 293.403 174.11C296.991 181.075 300.071 188.921 302.557 197.443C311.079 199.929 318.926 203.01 325.891 206.598C331.064 209.263 335.876 212.282 340.153 215.625C330.378 190.004 309.996 169.622 284.375 159.847ZM250.001 153.542C239.082 153.542 227.535 162.274 218.325 180.15C216.445 183.8 214.705 187.76 213.13 191.991L212.465 193.822L214.677 193.407C225.788 191.398 237.678 190.317 250.001 190.317C263.145 190.317 275.797 191.547 287.537 193.822L286.872 191.991C285.296 187.76 283.556 183.8 281.676 180.15C272.467 162.274 260.92 153.542 250.001 153.542Z" fill="#0C39ED"/>
<path d="M1499.47 337.72C1483.47 337.72 1470.54 334.133 1460.66 326.96C1450.86 319.708 1444.9 309.494 1442.78 296.317L1475.48 291.404C1476.81 297.33 1479.75 301.97 1484.3 305.322C1488.92 308.675 1494.76 310.352 1501.82 310.352C1507.62 310.352 1512.09 309.26 1515.23 307.077C1518.36 304.816 1519.93 301.697 1519.93 297.72C1519.93 295.225 1519.31 293.237 1518.05 291.755C1516.8 290.196 1513.97 288.675 1509.58 287.194C1505.27 285.713 1498.53 283.763 1489.35 281.346C1479 278.695 1470.73 275.732 1464.54 272.457C1458.34 269.183 1453.87 265.284 1451.13 260.762C1448.39 256.161 1447.01 250.625 1447.01 244.154C1447.01 236.045 1449.09 229.027 1453.25 223.101C1457.4 217.098 1463.24 212.497 1470.77 209.3C1478.38 206.026 1487.32 204.388 1497.59 204.388C1507.54 204.388 1516.37 205.909 1524.05 208.95C1531.73 211.99 1537.93 216.318 1542.63 221.932C1547.41 227.546 1550.36 234.173 1551.45 241.815L1518.76 247.662C1518.21 242.984 1516.17 239.28 1512.64 236.551C1509.11 233.822 1504.33 232.224 1498.29 231.756C1492.41 231.366 1487.67 232.146 1484.06 234.095C1480.53 236.045 1478.77 238.852 1478.77 242.516C1478.77 244.699 1479.51 246.532 1481 248.013C1482.57 249.495 1485.75 251.015 1490.53 252.575C1495.39 254.134 1502.76 256.161 1512.64 258.656C1522.29 261.152 1530.01 264.075 1535.81 267.428C1541.69 270.703 1545.96 274.68 1548.63 279.358C1551.3 283.958 1552.63 289.533 1552.63 296.083C1552.63 309.026 1547.92 319.201 1538.52 326.609C1529.11 334.016 1516.09 337.72 1499.47 337.72Z" fill="#0C39ED"/>
<path d="M1370.82 337.72C1354.82 337.72 1341.89 334.133 1332.01 326.96C1322.2 319.708 1316.25 309.494 1314.13 296.317L1346.83 291.404C1348.16 297.33 1351.1 301.97 1355.65 305.322C1360.27 308.675 1366.11 310.352 1373.17 310.352C1378.97 310.352 1383.44 309.26 1386.58 307.077C1389.71 304.816 1391.28 301.697 1391.28 297.72C1391.28 295.225 1390.66 293.237 1389.4 291.755C1388.15 290.196 1385.32 288.675 1380.93 287.194C1376.62 285.713 1369.88 283.763 1360.7 281.346C1350.35 278.695 1342.08 275.732 1335.89 272.457C1329.69 269.183 1325.22 265.284 1322.48 260.762C1319.74 256.161 1318.36 250.625 1318.36 244.154C1318.36 236.045 1320.44 229.027 1324.6 223.101C1328.75 217.098 1334.59 212.497 1342.12 209.3C1349.73 206.026 1358.66 204.388 1368.94 204.388C1378.89 204.388 1387.71 205.909 1395.4 208.95C1403.08 211.99 1409.28 216.318 1413.98 221.932C1418.76 227.546 1421.7 234.173 1422.8 241.815L1390.11 247.662C1389.56 242.984 1387.52 239.28 1383.99 236.551C1380.46 233.822 1375.68 232.224 1369.64 231.756C1363.76 231.366 1359.02 232.146 1355.41 234.095C1351.88 236.045 1350.12 238.852 1350.12 242.516C1350.12 244.699 1350.86 246.532 1352.35 248.013C1353.92 249.495 1357.1 251.015 1361.88 252.575C1366.74 254.134 1374.11 256.161 1383.99 258.656C1393.63 261.152 1401.36 264.075 1407.16 267.428C1413.04 270.703 1417.31 274.68 1419.98 279.358C1422.65 283.958 1423.98 289.533 1423.98 296.083C1423.98 309.026 1419.27 319.201 1409.87 326.609C1400.46 334.016 1387.44 337.72 1370.82 337.72Z" fill="#0C39ED"/>
<path d="M1219.36 337.72C1210.26 337.72 1202.54 336.004 1196.19 332.574C1189.92 329.065 1185.13 324.425 1181.84 318.656C1178.62 312.808 1177.02 306.375 1177.02 299.358C1177.02 293.51 1177.92 288.169 1179.72 283.334C1181.53 278.5 1184.43 274.251 1188.43 270.586C1192.5 266.843 1197.95 263.725 1204.77 261.229C1209.48 259.514 1215.08 257.994 1221.59 256.668C1228.1 255.343 1235.47 254.095 1243.7 252.926C1251.94 251.678 1260.99 250.313 1270.87 248.832L1259.35 255.148C1259.35 247.662 1257.54 242.165 1253.94 238.657C1250.33 235.148 1244.29 233.394 1235.82 233.394C1231.12 233.394 1226.22 234.524 1221.12 236.785C1216.03 239.047 1212.46 243.062 1210.42 248.832L1181.49 239.709C1184.7 229.261 1190.74 220.762 1199.6 214.213C1208.46 207.663 1220.53 204.388 1235.82 204.388C1247.04 204.388 1256.99 206.104 1265.7 209.534C1274.4 212.965 1280.99 218.891 1285.46 227.312C1287.96 231.99 1289.45 236.668 1289.93 241.347C1290.4 246.025 1290.63 251.249 1290.63 257.019V334.211H1262.64V308.246L1266.64 313.626C1260.44 322.125 1253.74 328.285 1246.53 332.106C1239.39 335.848 1230.34 337.72 1219.36 337.72ZM1226.18 312.691C1232.06 312.691 1237 311.677 1241 309.65C1245.08 307.545 1248.29 305.166 1250.64 302.515C1253.07 299.864 1254.72 297.642 1255.58 295.849C1257.23 292.418 1258.17 288.442 1258.41 283.919C1258.72 279.319 1258.88 275.498 1258.88 272.457L1268.28 274.797C1258.8 276.356 1251.11 277.681 1245.23 278.773C1239.35 279.787 1234.61 280.722 1231 281.58C1227.39 282.438 1224.22 283.373 1221.47 284.387C1218.34 285.635 1215.79 286.999 1213.83 288.481C1211.95 289.884 1210.54 291.443 1209.6 293.159C1208.73 294.874 1208.3 296.785 1208.3 298.89C1208.3 301.775 1209.01 304.27 1210.42 306.375C1211.91 308.402 1213.99 309.962 1216.65 311.053C1219.32 312.145 1222.49 312.691 1226.18 312.691Z" fill="#0C39ED"/>
<path d="M1033.62 334.207V165.789H1105.13C1106.77 165.789 1108.97 165.867 1111.71 166.022C1114.53 166.1 1117.04 166.334 1119.24 166.724C1129.35 168.284 1137.63 171.597 1144.05 176.666C1150.56 181.734 1155.35 188.127 1158.4 195.847C1161.46 203.488 1162.99 212.026 1162.99 221.46C1162.99 230.895 1161.42 239.472 1158.29 247.191C1155.23 254.832 1150.45 261.187 1143.94 266.255C1137.51 271.323 1129.28 274.637 1119.24 276.196C1117.04 276.508 1114.53 276.742 1111.71 276.898C1108.89 277.054 1106.69 277.132 1105.13 277.132H1065.61V334.207H1033.62ZM1065.61 247.425H1103.71C1105.36 247.425 1107.16 247.347 1109.12 247.191C1111.08 247.035 1112.89 246.723 1114.53 246.255C1118.85 245.086 1122.18 243.136 1124.53 240.407C1126.88 237.6 1128.49 234.521 1129.35 231.168C1130.29 227.737 1130.76 224.501 1130.76 221.46C1130.76 218.419 1130.29 215.223 1129.35 211.87C1128.49 208.439 1126.88 205.359 1124.53 202.63C1122.18 199.823 1118.85 197.835 1114.53 196.665C1112.89 196.197 1111.08 195.886 1109.12 195.73C1107.16 195.574 1105.36 195.496 1103.71 195.496H1065.61V247.425Z" fill="#0C39ED"/>
<path d="M1005.3 334.206C996.515 335.843 987.89 336.545 979.422 336.311C971.032 336.155 963.505 334.713 956.841 331.984C950.254 329.177 945.236 324.693 941.786 318.534C938.65 312.764 937.003 306.916 936.847 300.99C936.69 294.986 936.611 288.203 936.611 280.639V172.805H968.602V278.768C968.602 283.68 968.641 288.125 968.719 292.101C968.876 296 969.7 299.119 971.189 301.458C974.012 305.902 978.52 308.319 984.715 308.709C990.909 309.099 997.77 308.787 1005.3 307.774V334.206ZM914.971 232.453V207.892H1005.3V232.453H914.971Z" fill="#0C39ED"/>
<path d="M848.928 334.207V208.361C848.928 205.164 849.006 201.538 849.163 197.484C849.32 193.429 849.947 189.336 851.045 185.203C852.221 181.071 854.338 177.328 857.396 173.976C861.316 169.609 865.55 166.646 870.098 165.087C874.724 163.449 879.193 162.592 883.506 162.514C887.818 162.358 891.503 162.28 894.561 162.28H910.321V188.01H895.737C890.719 188.01 886.995 189.297 884.564 191.87C882.133 194.365 880.918 197.367 880.918 200.876V334.207H848.928ZM828.934 232.454V207.893H910.321V232.454H828.934Z" fill="#0C39ED"/>
<path d="M771.074 190.35V162.28H803.065V190.35H771.074ZM771.074 334.207V207.893H803.065V334.207H771.074Z" fill="#0C39ED"/>
<path d="M604.193 334.204L565.381 207.656L596.666 207.89L619.718 283.21L643.122 207.89H669.703L693.108 283.21L716.16 207.89H747.444L708.632 334.204H684.169L656.413 251.866L628.656 334.204H604.193Z" fill="#0C39ED"/>
<path d="M483.319 337.721C470.774 337.721 459.444 335.538 449.329 331.171C439.293 326.727 431.021 320.411 424.513 312.224C418.083 303.959 414.006 294.135 412.281 282.751L445.683 277.839C448.035 287.507 452.897 294.953 460.267 300.177C467.637 305.401 476.027 308.014 485.436 308.014C490.689 308.014 495.786 307.195 500.726 305.557C505.665 303.92 509.703 301.503 512.84 298.306C516.054 295.109 517.662 291.172 517.662 286.493C517.662 284.778 517.387 283.141 516.838 281.581C516.368 279.944 515.545 278.423 514.369 277.02C513.192 275.616 511.507 274.291 509.311 273.043C507.194 271.796 504.489 270.665 501.196 269.652L457.209 256.786C453.916 255.851 450.074 254.525 445.683 252.81C441.371 251.094 437.176 248.638 433.099 245.441C429.021 242.245 425.611 238.034 422.866 232.81C420.2 227.508 418.868 220.841 418.868 212.81C418.868 201.504 421.729 192.109 427.453 184.623C433.177 177.138 440.822 171.563 450.388 167.899C459.953 164.234 470.538 162.441 482.143 162.519C493.826 162.674 504.254 164.663 513.428 168.483C522.601 172.304 530.285 177.879 536.48 185.208C542.674 192.46 547.143 201.348 549.887 211.875L515.309 217.722C514.055 212.264 511.742 207.664 508.37 203.921C504.999 200.179 500.961 197.333 496.256 195.384C491.63 193.434 486.769 192.382 481.672 192.226C476.654 192.07 471.911 192.772 467.441 194.331C463.05 195.812 459.444 197.996 456.621 200.881C453.877 203.766 452.505 207.196 452.505 211.173C452.505 214.837 453.642 217.839 455.915 220.179C458.189 222.44 461.051 224.272 464.501 225.676C467.951 227.079 471.479 228.249 475.086 229.184L504.489 237.137C508.88 238.307 513.741 239.866 519.073 241.816C524.405 243.687 529.501 246.338 534.363 249.769C539.302 253.122 543.34 257.566 546.477 263.102C549.691 268.638 551.299 275.655 551.299 284.154C551.299 293.199 549.378 301.113 545.536 307.897C541.772 314.602 536.676 320.177 530.246 324.621C523.817 328.988 516.525 332.263 508.37 334.446C500.294 336.629 491.944 337.721 483.319 337.721Z" fill="#0C39ED"/>
</svg>
